# xmcd CD database file
#
# Track frame offsets:
#	150
#	12256
#	24940
#	38758
#	51795
#	65415
#	79294
#	93423
#	106616
#	118797
#	133984
#	148579
#
# Disc length: 2134 seconds
#
# Revision: 3
# Processed by: cddbd v1.5.2PL0 Copyright (c) Steve Scherf et al.
# Submitted via: CDex 1.51
#
DISCID=9b08540c
DTITLE=Thelonious Monk - Vol.01 - Recollections
DYEAR=1900
DGENRE=Jazz
TTITLE0=Recollections
TTITLE1=Flyin' Hawk
TTITLE2=Drifting On A Reed
TTITLE3=On The Bean
TTITLE4=Thelonious
TTITLE5=Evonce
TTITLE6=Monk's Mood
TTITLE7=Humph
TTITLE8=Who Knows
TTITLE9=April In Paris
TTITLE10=Introspection
TTITLE11=Evidence
EXTD=
EXTT0=
EXTT1=
EXTT2=
EXTT3=
EXTT4=
EXTT5=
EXTT6=
EXTT7=
EXTT8=
EXTT9=
EXTT10=
EXTT11=
PLAYORDER=
